<svg viewBox="0 0 512 512" xmlns="http://www.w3.org/2000/svg" fill="#3f4551">
    <!-- Main Body -->
    <path d="m482 278h-37.673v-54c0-14.602-10.489-26.795-24.327-29.455v-104.529c0-19.859-16.157-36.016-36.017-36.016h-128.983c-5.522 0-10 4.477-10 10s4.478 10 10 10h128.983c8.832 0 16.017 7.185 16.017 16.016v103.984h-129.667c-16.542 0-30 13.458-30 30v63.228h-220.333v-197.212c0-8.831 7.185-16.016 16.017-16.016h128.983c5.522 0 10-4.477 10-10s-4.478-10-10-10h-128.983c-19.86 0-36.017 16.157-36.017 36.016v229.268c0 19.859 16.157 36.017 36.017 36.017h123.33v36.063c0 19.688-9.953 37.694-26.624 48.168-3.774 2.371-5.523 6.953-4.29 11.235 1.233 4.283 5.152 7.232 9.609 7.232h343.958c16.542 0 30-13.458 30-30v-119.999c0-16.542-13.458-30-30-30zm-211.667-64h143.994c5.514 0 10 4.486 10 10v54h-14.327c-16.542 0-30 13.458-30 30v120c0 3.506.61 6.87 1.72 10h-111.387c-5.514 0-10-4.486-10-10v-204c0-5.514 4.486-10 10-10zm-250.333 105.284v-12.057h220.333v28.073h-70.986-133.33c-8.832.001-16.017-7.184-16.017-16.016zm159.347 72.08v-36.063h60.986v72.699c0 3.506.61 6.87 1.72 10h-78.402c10.071-13.169 15.696-29.427 15.696-46.636zm312.653 36.636c0 5.514-4.486 10-10 10h-72c-5.514 0-10-4.486-10-10v-120c0-5.514 4.486-10 10-10h72c5.514 0 10 4.486 10 10z" />

    <!-- Small Rectangular Section -->
    <path d="m58 114.614c-5.522 0-10 4.477-10 10v112c0 5.523 4.478 10 10 10h88c5.522 0 10-4.477 10-10v-112c0-5.523-4.478-10-10-10zm78 112h-68v-92h68z" />

    <!-- Small Horizontal Lines -->
    <path d="m194 134.614h101c5.522 0 10-4.477 10-10s-4.478-10-10-10h-101c-5.522 0-10 4.477-10 10s4.478 10 10 10z" />

    <!-- Circle Shape -->
    <path d="m194 230.61c2.63 0 5.21-1.06 7.069-2.92 1.86-1.87 2.931-4.44 2.931-7.08 0-2.63-1.07-5.21-2.931-7.07-1.859-1.86-4.439-2.93-7.069-2.93s-5.21 1.07-7.07 2.93-2.93 4.44-2.93 7.07 1.069 5.21 2.93 7.08c1.86 1.86 4.44 2.92 7.07 2.92z" />

    <!-- Horizontal Bar -->
    <path d="m194 182.614h37.5c5.522 0 10-4.477 10-10s-4.478-10-10-10h-37.5c-5.522 0-10 4.477-10 10s4.478 10 10 10z" />

    <!-- Circular Buttons -->
    <path d="m446 398c-2.63 0-5.21 1.069-7.07 2.93s-2.93 4.44-2.93 7.07 1.069 5.21 2.93 7.069c1.86 1.86 4.44 2.931 7.07 2.931s5.21-1.07 7.069-2.931c1.861-1.859 2.931-4.439 2.931-7.069s-1.07-5.21-2.931-7.07c-1.859-1.861-4.439-2.93-7.069-2.93z" />

    <path d="m342.33 418c2.63 0 5.21-1.07 7.069-2.931 1.86-1.859 2.931-4.439 2.931-7.069s-1.07-5.21-2.931-7.07c-1.859-1.86-4.439-2.93-7.069-2.93s-5.21 1.069-7.07 2.93-2.93 4.44-2.93 7.07 1.069 5.21 2.93 7.069c1.86 1.861 4.44 2.931 7.07 2.931z" />

    <path d="m210 74c2.63 0 5.21-1.07 7.069-2.93 1.861-1.86 2.931-4.44 2.931-7.07s-1.07-5.21-2.931-7.07c-1.859-1.86-4.439-2.93-7.069-2.93s-5.21 1.07-7.07 2.93-2.93 4.44-2.93 7.07 1.069 5.21 2.93 7.07 4.44 2.93 7.07 2.93z" />
</svg>
