<svg role="img" viewBox="0 0 24 24" fill="#3f4551" xmlns="http://www.w3.org/2000/svg">
  <title>GitHub</title>
  <path d="M12 0C5.37 0 0 5.37 0 12c0 5.3 3.438 9.8 8.205 11.385.6.113.82-.26.82-.577v-2.234c-3.338.724-4.033-1.415-4.033-1.415-.546-1.387-1.333-1.756-1.333-1.756-1.09-.745.082-.729.082-.729 1.205.085 1.84 1.237 1.84 1.237 1.07 1.834 2.807 1.304 3.492.997.108-.775.418-1.305.76-1.605-2.665-.3-5.466-1.335-5.466-5.933 0-1.31.467-2.382 1.236-3.222-.124-.303-.536-1.523.117-3.176 0 0 1.008-.322 3.3 1.23a11.52 11.52 0 013.003-.404c1.018.005 2.044.138 3.003.404 2.29-1.552 3.296-1.23 3.296-1.23.655 1.653.243 2.873.12 3.176.77.84 1.233 1.912 1.233 3.222 0 4.61-2.805 5.63-5.475 5.927.43.37.815 1.102.815 2.222v3.293c0 .32.217.694.825.576C20.565 21.796 24 17.298 24 12c0-6.63-5.373-12-12-12z"/>
</svg>
