<svg xmlns="http://www.w3.org/2000/svg" viewBox="0 0 384 512" width="64" height="64">
  <path fill="#3f4551" d="M0 32l34.9 394.4L192 480l157.1-53.6L384 32H0z"/>
  <path fill="#515866" d="M192 448l127.5-43.5L349.3 64H192v384z"/>
  <path fill="#101624" d="M192 208h-64.6l-4.5-50H192V108H68.9l1.2 13.6 12.3 138.4H192V208zm0 129.6l-.2.1-54-18.4-3.5-39.2H86.6l7 78.5L192 394.6v-57z"/>
  <path fill="#101624" d="M191.8 208v50h60.1l-5.7 61.2-54.4 18.5v57l98.6-35.1.7-8.1 11.5-128.9 1.2-13.6h-111zM191.8 108v50h116.5l1-11.3 2.3-25.7 1.2-13.6H191.8z"/>
</svg>
